<svg xmlns="http://www.w3.org/2000/svg" xmlns:xlink="http://www.w3.org/1999/xlink" width="170" zoomAndPan="magnify" viewBox="0 0 127.5 37.5" height="50" preserveAspectRatio="xMidYMid meet" version="1.0"><defs><g/></defs><g fill="#000000" fill-opacity="1"><g transform="translate(5.696679, 26.191515)"><g><path d="M 3.53125 -3.777344 C 3.53125 -6.316406 3.53125 -8.855469 3.53125 -11.394531 C 3.53125 -12.972656 3.621094 -14.027344 4.085938 -15.171875 C 2.726562 -15.171875 1.363281 -15.171875 0 -15.171875 C 0.433594 -14.027344 0.558594 -12.972656 0.558594 -11.394531 C 0.558594 -8.855469 0.558594 -6.316406 0.558594 -3.777344 C 0.558594 -2.230469 0.433594 -1.175781 0 0 C 1.363281 0 2.726562 0 4.085938 0 C 3.621094 -1.175781 3.53125 -2.230469 3.53125 -3.777344 Z M 2.042969 -19.199219 C 1.207031 -19.199219 0.558594 -18.546875 0.558594 -17.710938 C 0.558594 -16.875 1.207031 -16.226562 2.042969 -16.226562 C 2.847656 -16.226562 3.53125 -16.875 3.53125 -17.710938 C 3.53125 -18.546875 2.847656 -19.199219 2.042969 -19.199219 Z M 2.042969 -19.199219 "/></g></g></g><g fill="#000000" fill-opacity="1"><g transform="translate(12.383778, 26.191515)"><g><path d="M 9.164062 -23.222656 L 0 -23.222656 C 0.433594 -22.046875 0.558594 -20.683594 0.558594 -19.105469 C 0.558594 -16.566406 0.558594 -6.65625 0.558594 -4.117188 C 0.558594 -2.539062 0.433594 -1.175781 0 0 C 1.363281 0 3.3125 0 4.675781 0 C 4.242188 -1.175781 4.117188 -2.539062 4.117188 -4.117188 L 4.117188 -4.769531 C 4.117188 -12.199219 16.722656 -10.867188 16.722656 -18.300781 C 16.722656 -20.996094 14.335938 -23.222656 9.164062 -23.222656 Z M 4.117188 -8.484375 L 4.117188 -22.140625 L 5.976562 -22.140625 C 9.691406 -22.140625 13.035156 -21.304688 13.128906 -18.457031 C 13.316406 -13.6875 6.71875 -12.882812 4.117188 -8.484375 Z M 4.117188 -8.484375 "/></g></g></g><g fill="#000000" fill-opacity="1"><g transform="translate(31.671086, 26.191515)"><g><path d="M 14.925781 0 C 14.492188 -1.175781 14.367188 -2.230469 14.367188 -3.777344 L 14.367188 -11.394531 C 14.367188 -12.972656 14.492188 -14.027344 14.925781 -15.171875 C 13.5625 -15.171875 12.199219 -15.171875 10.835938 -15.171875 C 11.269531 -14.027344 11.394531 -12.972656 11.394531 -11.394531 L 11.394531 -4.027344 C 11.394531 -3.933594 11.394531 -3.839844 11.394531 -3.746094 C 10.40625 -3.1875 8.949219 -2.445312 7.648438 -2.011719 C 5.355469 -1.269531 3.53125 -1.515625 3.53125 -4.488281 L 3.53125 -11.394531 C 3.53125 -12.972656 3.621094 -14.027344 4.085938 -15.171875 C 2.726562 -15.171875 1.363281 -15.171875 0 -15.171875 C 0.433594 -14.027344 0.558594 -12.972656 0.558594 -11.394531 C 0.558594 -9.164062 0.558594 -6.222656 0.558594 -3.871094 C 0.558594 -1.300781 1.949219 0 4.488281 0 C 6.90625 0 9.476562 -1.394531 11.425781 -2.601562 C 11.457031 -1.703125 11.613281 -0.867188 11.953125 0 Z M 14.925781 0 "/></g></g></g><g fill="#000000" fill-opacity="1"><g transform="translate(49.19375, 26.191515)"><g><path d="M 0 -15.171875 C 0.464844 -14.027344 0.558594 -12.972656 0.558594 -11.394531 L 0.558594 -3.777344 C 0.558594 -2.230469 0.464844 -1.175781 0 0 C 1.363281 0 2.726562 0 4.085938 0 C 3.652344 -1.175781 3.53125 -2.230469 3.53125 -3.777344 L 3.53125 -11.179688 C 3.53125 -11.242188 3.53125 -11.332031 3.53125 -11.425781 C 5.480469 -12.757812 7.863281 -13.128906 10.433594 -12.199219 L 10.433594 -15.171875 C 8.019531 -15.171875 5.480469 -13.78125 3.53125 -12.570312 C 3.46875 -13.46875 3.34375 -14.304688 3.003906 -15.171875 Z M 0 -15.171875 "/></g></g></g><g fill="#000000" fill-opacity="1"><g transform="translate(62.227393, 26.191515)"><g><path d="M 6.441406 -2.507812 C 5.234375 -3.28125 6.285156 -4.398438 8.269531 -4.890625 C 9.289062 -5.171875 10.464844 -5.324219 11.488281 -5.667969 C 14.800781 -6.78125 15.234375 -10.375 13.128906 -12.789062 C 11.828125 -14.273438 9.753906 -15.171875 7.585938 -15.171875 C 3.40625 -15.171875 0 -11.765625 0 -7.585938 C 0 -3.40625 3.40625 0 7.585938 0 C 10.558594 0 13.160156 -1.703125 14.398438 -4.210938 L 13.808594 -5.015625 C 12.632812 -2.292969 9.074219 -0.835938 6.441406 -2.507812 Z M 4.769531 -3.746094 C 4.335938 -4.179688 3.964844 -4.675781 3.621094 -5.265625 C 1.796875 -8.359375 2.074219 -11.921875 4.273438 -13.191406 C 5.078125 -13.65625 5.976562 -13.75 6.84375 -13.625 C 8.761719 -13.285156 10.746094 -11.765625 11.300781 -9.878906 C 11.675781 -8.609375 11.332031 -7.308594 9.878906 -6.6875 C 8.144531 -5.976562 5.699219 -5.636719 4.769531 -3.746094 Z M 4.769531 -3.746094 "/></g></g></g><g fill="#000000" fill-opacity="1"><g transform="translate(79.316636, 26.191515)"><g><path d="M 4.117188 -4.117188 L 4.117188 -10.03125 L 7.523438 -10.03125 C 10.3125 -10.03125 11.363281 -8.359375 11.613281 -7.710938 L 11.890625 -7.710938 C 11.890625 -9.660156 11.890625 -11.613281 11.890625 -13.5625 L 11.613281 -13.5625 C 11.363281 -12.914062 10.3125 -11.242188 7.523438 -11.242188 L 4.117188 -11.242188 L 4.117188 -22.015625 L 11.117188 -22.015625 C 13.902344 -22.015625 14.925781 -20.34375 15.203125 -19.695312 L 15.453125 -19.695312 L 15.234375 -23.222656 L 0 -23.222656 C 0.433594 -22.046875 0.558594 -20.683594 0.558594 -19.105469 C 0.558594 -16.566406 0.558594 -6.65625 0.558594 -4.117188 C 0.558594 -2.539062 0.433594 -1.175781 0 0 L 4.675781 0 C 4.242188 -1.175781 4.117188 -2.539062 4.117188 -4.117188 Z M 4.117188 -4.117188 "/></g></g></g><g fill="#000000" fill-opacity="1"><g transform="translate(97.396559, 26.191515)"><g><path d="M 3.53125 -3.777344 C 3.53125 -6.316406 3.53125 -8.855469 3.53125 -11.394531 C 3.53125 -12.972656 3.621094 -14.027344 4.085938 -15.171875 C 2.726562 -15.171875 1.363281 -15.171875 0 -15.171875 C 0.433594 -14.027344 0.558594 -12.972656 0.558594 -11.394531 C 0.558594 -8.855469 0.558594 -6.316406 0.558594 -3.777344 C 0.558594 -2.230469 0.433594 -1.175781 0 0 C 1.363281 0 2.726562 0 4.085938 0 C 3.621094 -1.175781 3.53125 -2.230469 3.53125 -3.777344 Z M 2.042969 -19.199219 C 1.207031 -19.199219 0.558594 -18.546875 0.558594 -17.710938 C 0.558594 -16.875 1.207031 -16.226562 2.042969 -16.226562 C 2.847656 -16.226562 3.53125 -16.875 3.53125 -17.710938 C 3.53125 -18.546875 2.847656 -19.199219 2.042969 -19.199219 Z M 2.042969 -19.199219 "/></g></g></g><g fill="#000000" fill-opacity="1"><g transform="translate(104.083657, 26.191515)"><g><path d="M 4.429688 -3.066406 C 5.140625 -3.996094 5.882812 -4.953125 6.59375 -5.914062 L 9.226562 -1.980469 C 9.597656 -1.394531 10.464844 0 11.117188 0 L 14.554688 0 C 13.964844 -0.496094 13.285156 -1.238281 12.882812 -1.859375 L 8.515625 -8.390625 C 9.785156 -10.03125 11.023438 -11.644531 12.292969 -13.285156 C 12.914062 -14.089844 13.65625 -14.648438 14.554688 -15.171875 L 10.464844 -15.171875 C 10.652344 -14.492188 11.117188 -13.378906 10.125 -12.105469 L 7.925781 -9.289062 L 5.324219 -13.222656 C 4.953125 -13.78125 4.085938 -15.171875 3.4375 -15.171875 L 0 -15.171875 C 0.589844 -14.675781 1.269531 -13.933594 1.671875 -13.316406 L 6.007812 -6.78125 C 4.769531 -5.140625 3.53125 -3.53125 2.261719 -1.890625 C 1.640625 -1.082031 0.867188 -0.558594 0 0 L 4.085938 0 C 3.871094 -0.804688 3.4375 -1.796875 4.429688 -3.066406 Z M 4.429688 -3.066406 "/></g></g></g></svg>